<mxfile host="Electron" modified="2024-02-17T03:27:45.994Z" agent="Mozilla/5.0 (Macintosh; Intel Mac OS X 10_15_7) AppleWebKit/537.36 (KHTML, like Gecko) draw.io/23.0.2 Chrome/120.0.6099.109 Electron/28.1.0 Safari/537.36" etag="4FCb4jQSxbfbFMkR-WV2" version="23.0.2" type="device">
  <diagram name="페이지-1" id="M0NsjzJZnVnXwUDnpiQg">
    <mxGraphModel dx="1114" dy="894" grid="1" gridSize="10" guides="1" tooltips="1" connect="1" arrows="1" fold="1" page="1" pageScale="1" pageWidth="827" pageHeight="1169" math="0" shadow="0">
      <root>
        <mxCell id="0" />
        <mxCell id="1" parent="0" />
        <mxCell id="cDJEaqjZ0aoC0ymkAFVB-1" style="edgeStyle=orthogonalEdgeStyle;rounded=0;orthogonalLoop=1;jettySize=auto;html=1;entryX=0.5;entryY=0;entryDx=0;entryDy=0;endArrow=block;endFill=1;" edge="1" parent="1" source="cDJEaqjZ0aoC0ymkAFVB-2" target="cDJEaqjZ0aoC0ymkAFVB-3">
          <mxGeometry relative="1" as="geometry" />
        </mxCell>
        <mxCell id="cDJEaqjZ0aoC0ymkAFVB-2" value="BasicAuthenticationFilter&lt;br&gt;(기본 인증 필터)" style="rounded=0;whiteSpace=wrap;html=1;" vertex="1" parent="1">
          <mxGeometry x="300" y="200" width="160" height="40" as="geometry" />
        </mxCell>
        <mxCell id="cDJEaqjZ0aoC0ymkAFVB-3" value="AuthenticationManager&lt;br&gt;(인증 관리자)" style="rounded=0;whiteSpace=wrap;html=1;" vertex="1" parent="1">
          <mxGeometry x="300" y="300" width="160" height="40" as="geometry" />
        </mxCell>
        <mxCell id="cDJEaqjZ0aoC0ymkAFVB-6" value="RequestValidationFilter" style="rounded=0;whiteSpace=wrap;html=1;fillColor=#f8cecc;strokeColor=#b85450;" vertex="1" parent="1">
          <mxGeometry x="100" y="200" width="160" height="40" as="geometry" />
        </mxCell>
        <mxCell id="cDJEaqjZ0aoC0ymkAFVB-8" value="" style="endArrow=block;html=1;rounded=0;endFill=1;" edge="1" parent="1">
          <mxGeometry width="50" height="50" relative="1" as="geometry">
            <mxPoint x="20" y="210" as="sourcePoint" />
            <mxPoint x="100" y="210" as="targetPoint" />
          </mxGeometry>
        </mxCell>
        <mxCell id="cDJEaqjZ0aoC0ymkAFVB-9" value="Request" style="edgeLabel;html=1;align=center;verticalAlign=middle;resizable=0;points=[];" vertex="1" connectable="0" parent="cDJEaqjZ0aoC0ymkAFVB-8">
          <mxGeometry x="-0.325" relative="1" as="geometry">
            <mxPoint x="9" y="-1" as="offset" />
          </mxGeometry>
        </mxCell>
        <mxCell id="cDJEaqjZ0aoC0ymkAFVB-10" value="" style="endArrow=block;html=1;rounded=0;endFill=1;" edge="1" parent="1">
          <mxGeometry width="50" height="50" relative="1" as="geometry">
            <mxPoint x="260" y="210" as="sourcePoint" />
            <mxPoint x="300" y="210" as="targetPoint" />
          </mxGeometry>
        </mxCell>
        <mxCell id="cDJEaqjZ0aoC0ymkAFVB-11" value="" style="endArrow=none;html=1;rounded=0;endFill=0;startArrow=block;startFill=1;" edge="1" parent="1">
          <mxGeometry width="50" height="50" relative="1" as="geometry">
            <mxPoint x="20" y="230" as="sourcePoint" />
            <mxPoint x="100" y="230" as="targetPoint" />
          </mxGeometry>
        </mxCell>
        <mxCell id="cDJEaqjZ0aoC0ymkAFVB-12" value="Response" style="edgeLabel;html=1;align=center;verticalAlign=middle;resizable=0;points=[];" vertex="1" connectable="0" parent="cDJEaqjZ0aoC0ymkAFVB-11">
          <mxGeometry x="-0.45" relative="1" as="geometry">
            <mxPoint x="17" y="-1" as="offset" />
          </mxGeometry>
        </mxCell>
        <mxCell id="cDJEaqjZ0aoC0ymkAFVB-14" value="" style="endArrow=none;html=1;rounded=0;endFill=0;startArrow=block;startFill=1;" edge="1" parent="1">
          <mxGeometry width="50" height="50" relative="1" as="geometry">
            <mxPoint x="260" y="230" as="sourcePoint" />
            <mxPoint x="300" y="230" as="targetPoint" />
          </mxGeometry>
        </mxCell>
        <mxCell id="cDJEaqjZ0aoC0ymkAFVB-16" value="필터 체인에서 BasicAuthenticationFilter 앞에 RequestValidationFilter 추가" style="text;html=1;strokeColor=#82b366;fillColor=#d5e8d4;align=center;verticalAlign=middle;whiteSpace=wrap;rounded=0;shadow=0;glass=0;sketch=1;curveFitting=1;jiggle=2;" vertex="1" parent="1">
          <mxGeometry x="140" y="100" width="260" height="40" as="geometry" />
        </mxCell>
        <mxCell id="cDJEaqjZ0aoC0ymkAFVB-17" style="edgeStyle=orthogonalEdgeStyle;rounded=0;orthogonalLoop=1;jettySize=auto;html=1;entryX=0.606;entryY=-0.05;entryDx=0;entryDy=0;entryPerimeter=0;fillColor=#d5e8d4;strokeColor=#82b366;curved=1;" edge="1" parent="1" source="cDJEaqjZ0aoC0ymkAFVB-16" target="cDJEaqjZ0aoC0ymkAFVB-6">
          <mxGeometry relative="1" as="geometry" />
        </mxCell>
      </root>
    </mxGraphModel>
  </diagram>
</mxfile>
